<svg width="55" height="28" viewBox="0 0 55 28" fill="none" xmlns="http://www.w3.org/2000/svg">
<path d="M8.90352 11.1919C8.48568 11.8572 8.27677 12.6756 8.27677 13.6472C8.27677 14.5947 8.48568 15.4131 8.90352 16.1025C9.32123 16.7879 9.93612 17.304 10.7481 17.6507C11.5599 17.9934 12.557 18.1668 13.7395 18.1668H17.1449C18.4889 21.7429 21.4488 24.6538 25.2483 26.1899V27.3792H17.2868V24.8876H13.5307C10.8191 24.8876 8.44639 24.4199 6.41664 23.4846C4.39072 22.5452 2.81415 21.2309 1.68703 19.5335C0.56362 17.8402 0 15.8768 0 13.6472C0 11.4177 0.56362 9.46228 1.68691 7.77701C2.81403 6.09174 4.3906 4.78548 6.41652 3.8461C8.44627 2.91077 10.819 2.44304 13.5306 2.44304H17.2867V0.165176H25.2481V1.50366C21.5788 2.98736 18.6898 5.75304 17.2867 9.1639H13.7394C12.5569 9.1639 11.5598 9.33729 10.7479 9.68003C9.93612 10.0226 9.32123 10.5307 8.90352 11.1919Z" fill="#111F35"/>
<path d="M44.7384 18.1547C44.2181 18.5821 43.619 18.949 42.9372 19.2593C41.2976 19.9971 39.2993 20.3681 36.9385 20.3681C34.9126 20.3681 33.1547 20.0899 31.6609 19.5335C30.1673 18.9811 29.0124 18.2029 28.1926 17.2072C27.3728 16.2073 26.9628 15.0301 26.9628 13.6754C26.9628 12.2966 27.3728 11.1152 28.1926 10.1274C29.0124 9.14368 30.1633 8.36557 31.6453 7.79711C33.1272 7.2327 34.8653 6.95049 36.8676 6.95049C39.2757 6.95049 41.2938 7.31333 42.9175 8.03912C43.6507 8.36569 44.2812 8.7648 44.8252 9.23657H53.315L54.6539 9.25262C53.9799 7.45449 52.6882 5.50724 51.0132 4.17684C49.3381 2.84632 47.2926 1.81835 44.8687 1.08851C42.4487 0.362836 39.7803 0 36.8677 0C34.0456 0 31.4877 0.326565 29.1859 0.979694C26.8841 1.63282 24.9055 2.56411 23.2423 3.76965C21.5792 4.97922 20.2981 6.41843 19.3956 8.09574C18.489 9.76888 18.0398 11.6316 18.0398 13.6756C18.0398 16.4374 18.8163 18.8403 20.3691 20.8843C21.922 22.9324 24.1135 24.5129 26.9473 25.6337C29.7772 26.7545 33.0958 27.3149 36.9031 27.3149C39.8395 27.3149 42.5156 26.9521 44.9238 26.2263C47.332 25.5006 49.3617 24.4684 51.0132 23.1379C52.6646 21.8074 53.9799 19.966 54.6539 18.1438L53.6499 18.1548L44.7384 18.1547Z" fill="#111F35"/>
</svg>
